<?xml version="1.0" encoding="UTF-8"?>
<svg xmlns="http://www.w3.org/2000/svg" version="1.1" width="200" height="200" viewBox="0 0 200 200"><rect x="0" y="0" width="200" height="200" fill="#ffffff"/><g transform="scale(9.524)"><g transform="translate(0,0)"><path fill-rule="evenodd" d="M8 0L8 1L9 1L9 2L8 2L8 5L12 5L12 3L13 3L13 0L12 0L12 3L11 3L11 2L10 2L10 0ZM9 2L9 4L11 4L11 3L10 3L10 2ZM8 6L8 7L9 7L9 8L8 8L8 9L7 9L7 8L6 8L6 9L4 9L4 8L0 8L0 9L2 9L2 10L3 10L3 11L2 11L2 12L1 12L1 10L0 10L0 12L1 12L1 13L3 13L3 11L4 11L4 10L5 10L5 13L7 13L7 12L6 12L6 11L7 11L7 10L9 10L9 11L8 11L8 12L11 12L11 11L10 11L10 10L11 10L11 8L12 8L12 7L13 7L13 6L12 6L12 7L11 7L11 6L10 6L10 7L9 7L9 6ZM9 8L9 9L10 9L10 8ZM13 8L13 9L12 9L12 11L13 11L13 10L14 10L14 11L15 11L15 10L16 10L16 9L17 9L17 11L16 11L16 12L17 12L17 14L16 14L16 15L14 15L14 13L15 13L15 12L12 12L12 13L11 13L11 14L9 14L9 13L8 13L8 14L9 14L9 15L10 15L10 17L8 17L8 21L11 21L11 20L12 20L12 19L13 19L13 18L15 18L15 19L14 19L14 20L13 20L13 21L14 21L14 20L16 20L16 21L17 21L17 20L19 20L19 21L20 21L20 20L19 20L19 19L16 19L16 18L18 18L18 17L16 17L16 18L15 18L15 16L16 16L16 15L17 15L17 14L18 14L18 12L17 12L17 11L18 11L18 10L20 10L20 11L19 11L19 15L18 15L18 16L20 16L20 15L21 15L21 14L20 14L20 13L21 13L21 12L20 12L20 11L21 11L21 8L20 8L20 9L19 9L19 8L16 8L16 9L14 9L14 8ZM6 9L6 10L7 10L7 9ZM12 13L12 14L11 14L11 16L12 16L12 17L11 17L11 18L10 18L10 19L9 19L9 20L10 20L10 19L12 19L12 18L13 18L13 16L12 16L12 15L13 15L13 13ZM19 17L19 18L20 18L20 17ZM0 0L0 7L7 7L7 0ZM1 1L1 6L6 6L6 1ZM2 2L2 5L5 5L5 2ZM14 0L14 7L21 7L21 0ZM15 1L15 6L20 6L20 1ZM16 2L16 5L19 5L19 2ZM0 14L0 21L7 21L7 14ZM1 15L1 20L6 20L6 15ZM2 16L2 19L5 19L5 16Z" fill="#000000"/></g></g></svg>
